# xmcd
#
# Track frame offsets: 
#        150
#        20897
#        36937
#        53718
#        74555
#        94085
#        110617
#        132122
#        145031
#        161197
#        177150
#        190612
#        208237
#        224419
#        250744
#
# Disc length: 3611 seconds
#
# Revision: 0
# Processed by: cddbd v1.5.2PL0 Copyright (c) Steve Scherf et al.
# Submitted via: ExactAudioCopy v0.99pb4
#
DISCID=e30e190f
DTITLE=Various Artist - Country Club Anthems
DYEAR=2008
DGENRE=Country
TTITLE0=01 - Achy Breaky Heart.mp3
TTITLE1=02 - Friends in Low Places.mp3
TTITLE2=03 - Desperado.mp3
TTITLE3=04 - Nine to Five.mp3
TTITLE4=05 - From a Distance.mp3
TTITLE5=06 - Always on My Mind.mp3
TTITLE6=07 - Sylvia's Mother.mp3
TTITLE7=08 - Walk on By.mp3
TTITLE8=09 - Blanket on the Ground.mp3
TTITLE9=10 - That Don't Impress Me.mp3
TTITLE10=11 - Jolene.mp3
TTITLE11=12 - Crazy.mp3
TTITLE12=13 - I Will Love You All My Life.mp3
TTITLE13=14 - Coward of the Country.mp3
TTITLE14=15 - Country Megamix 1 Nine to FiveCountry RoadsIs This the W
TTITLE14=ay to Amaril.mp3
EXTD=
EXTT0=
EXTT1=
EXTT2=
EXTT3=
EXTT4=
EXTT5=
EXTT6=
EXTT7=
EXTT8=
EXTT9=
EXTT10=
EXTT11=
EXTT12=
EXTT13=
EXTT14=
PLAYORDER=
